<svg xml:space="preserve" viewBox="0 0 100 100" y="0" x="0" xmlns="http://www.w3.org/2000/svg" id="圖層_1" version="1.1" style="height: 100%; width: 100%; background: rgb(241, 242, 243);" width="200px" height="200px"><g class="ldl-scale" style="transform-origin: 50% 50%; transform: rotate(0deg) scale(0.8, 0.8);"><g class="ldl-ani"><g class="ldl-layer"><g class="ldl-ani" style="transform: scale(0.91); transform-origin: 50px 50px; animation: 1.11111s linear -0.580808s infinite normal forwards running breath-18b2b861-6731-42f9-b3a9-7db3db7d945c;"><path fill="#e0e0e0" d="M9.4 66h55.3V25.4H12.9c-2 0-3.5 1.6-3.5 3.5V66z" style="fill: rgb(232, 218, 141);"></path></g></g><g class="ldl-layer"><g class="ldl-ani" style="transform: scale(0.91); transform-origin: 50px 50px; animation: 1.11111s linear -0.606061s infinite normal forwards running breath-18b2b861-6731-42f9-b3a9-7db3db7d945c;"><path fill="#e0e0e0" d="M88.9 69.5H66.8c-1.6 0-2.8-1.5-2.8-3.4l.1-37.4c-.1-3.4-.1-3.4 2.8-3.4h13c1 0 2 .7 2.5 1.8l8.9 19.5c.2.5.3 1.1.3 1.6V66c.1 2-1.2 3.5-2.7 3.5z" style="fill: rgb(232, 218, 141);"></path></g></g><g class="ldl-layer"><g class="ldl-ani" style="transform: scale(0.91); transform-origin: 50px 50px; animation: 1.11111s linear -0.631313s infinite normal forwards running breath-18b2b861-6731-42f9-b3a9-7db3db7d945c;"><path fill="#e0e0e0" d="M73.5 65.1H9.7s-.3 0-.3.4c0 2.4 1.3 4 3.3 4h60.8c1 0 1.7-1 1.7-2.2 0-1.2-.8-2.2-1.7-2.2z" style="fill: rgb(232, 218, 141);"></path></g></g><g class="ldl-layer"><g class="ldl-ani" style="transform: scale(0.91); transform-origin: 50px 50px; animation: 1.11111s linear -0.656566s infinite normal forwards running breath-18b2b861-6731-42f9-b3a9-7db3db7d945c;"><path fill="#333" d="M80.8 29.8c-.4-.9-1.1-1.4-2-1.4H68.5c-1.2 0-2.2 1.2-2.2 2.8l-.1 16.3h22.7c0-.3-.1-.5-.2-.7l-7.9-17z" style="fill: rgb(244, 163, 88);"></path></g></g><g class="ldl-layer"><g class="ldl-ani" style="transform: scale(0.91); transform-origin: 50px 50px; animation: 1.11111s linear -0.681818s infinite normal forwards running breath-18b2b861-6731-42f9-b3a9-7db3db7d945c;"><path fill="#666" d="M71.8 52.6h-3.5c-.5 0-.9-.4-.9-.9s.4-.9.9-.9h3.5c.5 0 .9.4.9.9 0 .4-.4.9-.9.9z" style="fill: rgb(232, 97, 76);"></path></g></g><g class="ldl-layer"><g class="ldl-ani" style="transform: scale(0.91); transform-origin: 50px 50px; animation: 1.11111s linear -0.707071s infinite normal forwards running breath-18b2b861-6731-42f9-b3a9-7db3db7d945c;"><path d="M9.4 59.1h82.3v5.1H9.4z" fill="#e15b64" style="fill: rgb(45, 168, 139);"></path></g></g><g class="ldl-layer"><g class="ldl-ani"><g><g class="ldl-layer"><g class="ldl-ani" style="transform: scale(0.91); transform-origin: 50px 50px; animation: 1.11111s linear -0.732323s infinite normal forwards running breath-18b2b861-6731-42f9-b3a9-7db3db7d945c;"><path fill="#fff" d="M86.9 61.1h4.4c.6 0 1.1-.5 1.1-1.1v-1.9c0-.6-.5-1.1-1.1-1.1H87c-.3 0-.5.2-.5.5v3.2c0 .2.2.4.4.4z" style="fill: rgb(232, 97, 76);"></path></g></g></g></g></g><g class="ldl-layer"><g class="ldl-ani"><g><g class="ldl-layer"><g class="ldl-ani" style="transform: scale(0.91); transform-origin: 50px 50px; animation: 1.11111s linear -0.757576s infinite normal forwards running breath-18b2b861-6731-42f9-b3a9-7db3db7d945c;"><path fill="#d50d01" d="M13.3 56.9h-4c-.2 0-.4.2-.4.4v3.4c0 .2.2.4.4.4h4.1c1 0 1.8-.8 1.8-1.8v-.5c0-1-.9-1.9-1.9-1.9z" style="fill: rgb(41, 75, 89);"></path></g></g></g></g></g><g class="ldl-layer"><g class="ldl-ani"><g><g class="ldl-layer"><g class="ldl-ani" style="transform: scale(0.91); transform-origin: 50px 50px; animation: 1.11111s linear -0.782828s infinite normal forwards running breath-18b2b861-6731-42f9-b3a9-7db3db7d945c;"><circle fill="#fff" r="7.4" cy="67.4" cx="25.6" style="fill: rgb(232, 97, 76);"></circle></g></g><g class="ldl-layer"><g class="ldl-ani" style="transform: scale(0.91); transform-origin: 50px 50px; animation: 1.11111s linear -0.808081s infinite normal forwards running breath-18b2b861-6731-42f9-b3a9-7db3db7d945c;"><path fill="#333" d="M25.6 61.5c3.3 0 5.9 2.7 5.9 5.9s-2.7 5.9-5.9 5.9c-3.3 0-5.9-2.7-5.9-5.9s2.7-5.9 5.9-5.9m0-3c-4.9 0-8.9 4-8.9 8.9s4 8.9 8.9 8.9 8.9-4 8.9-8.9-3.9-8.9-8.9-8.9z" style="fill: rgb(244, 163, 88);"></path></g></g></g></g></g><g class="ldl-layer"><g class="ldl-ani"><g><g class="ldl-layer"><g class="ldl-ani" style="transform: scale(0.91); transform-origin: 50px 50px; animation: 1.11111s linear -0.833333s infinite normal forwards running breath-18b2b861-6731-42f9-b3a9-7db3db7d945c;"><circle fill="#e6e6e6" r="4" cy="67.4" cx="25.6" style="fill: rgb(244, 163, 88);"></circle></g></g></g></g></g><g class="ldl-layer"><g class="ldl-ani"><g><g class="ldl-layer"><g class="ldl-ani" style="transform: scale(0.91); transform-origin: 50px 50px; animation: 1.11111s linear -0.858586s infinite normal forwards running breath-18b2b861-6731-42f9-b3a9-7db3db7d945c;"><circle fill="#fff" r="7.4" cy="67.4" cx="72.9" style="fill: rgb(232, 97, 76);"></circle></g></g><g class="ldl-layer"><g class="ldl-ani" style="transform: scale(0.91); transform-origin: 50px 50px; animation: 1.11111s linear -0.883838s infinite normal forwards running breath-18b2b861-6731-42f9-b3a9-7db3db7d945c;"><path fill="#333" d="M72.9 61.5c3.3 0 5.9 2.7 5.9 5.9s-2.7 5.9-5.9 5.9-5.9-2.6-5.9-5.9 2.6-5.9 5.9-5.9m0-3c-4.9 0-8.9 4-8.9 8.9s4 8.9 8.9 8.9 8.9-4 8.9-8.9-4-8.9-8.9-8.9z" style="fill: rgb(244, 163, 88);"></path></g></g></g></g></g><g class="ldl-layer"><g class="ldl-ani"><g><g class="ldl-layer"><g class="ldl-ani" style="transform: scale(0.91); transform-origin: 50px 50px; animation: 1.11111s linear -0.909091s infinite normal forwards running breath-18b2b861-6731-42f9-b3a9-7db3db7d945c;"><circle fill="#e6e6e6" r="4" cy="67.4" cx="72.9" style="fill: rgb(244, 163, 88);"></circle></g></g></g></g></g><g class="ldl-layer"><g class="ldl-ani" style="transform: scale(0.91); transform-origin: 50px 50px; animation: 1.11111s linear -0.934343s infinite normal forwards running breath-18b2b861-6731-42f9-b3a9-7db3db7d945c;"><path fill="#e15b64" d="M77.3 24.6h-7.4v-3.5c0-2 1.7-3.7 3.7-3.7s3.7 1.7 3.7 3.7v3.5z" style="fill: rgb(45, 168, 139);"></path></g></g><g class="ldl-layer"><g class="ldl-ani" style="transform: scale(0.91); transform-origin: 50px 50px; animation: 1.11111s linear -0.959596s infinite normal forwards running breath-18b2b861-6731-42f9-b3a9-7db3db7d945c;"><path stroke-miterlimit="10" stroke-linecap="round" stroke-width=".583" stroke="#fff" fill="#666" d="M71.1 19.6c.4-.6 1-1 1.6-1.3" style="stroke: rgb(232, 97, 76); fill: rgb(232, 97, 76);"></path></g></g><g class="ldl-layer"><g class="ldl-ani" style="transform: scale(0.91); transform-origin: 50px 50px; animation: 1.11111s linear -0.984848s infinite normal forwards running breath-18b2b861-6731-42f9-b3a9-7db3db7d945c;"><path stroke-miterlimit="10" stroke-linecap="round" stroke-width=".583" stroke="#fff" fill="#666" d="M70.7 21v-.4" style="stroke: rgb(232, 97, 76); fill: rgb(232, 97, 76);"></path></g></g><g class="ldl-layer"><g class="ldl-ani" style="transform: scale(0.91); transform-origin: 50px 50px; animation: 1.11111s linear -1.0101s infinite normal forwards running breath-18b2b861-6731-42f9-b3a9-7db3db7d945c;"><path fill="#333" d="M78.3 25.3h-9.5v-.9c0-.6.5-1.1 1.1-1.1h7.2c.6 0 1.1.5 1.1 1.1v.9z" style="fill: rgb(244, 163, 88);"></path></g></g><g class="ldl-layer"><g class="ldl-ani" style="transform: scale(0.91); transform-origin: 50px 50px; animation: 1.11111s linear -1.03535s infinite normal forwards running breath-18b2b861-6731-42f9-b3a9-7db3db7d945c;"><path d="M9.4 31.8h56.8v3.5H9.4z" fill="#e15b64" style="fill: rgb(45, 168, 139);"></path></g></g><g class="ldl-layer"><g class="ldl-ani" style="transform: scale(0.91); transform-origin: 50px 50px; animation: 1.11111s linear -1.06061s infinite normal forwards running breath-18b2b861-6731-42f9-b3a9-7db3db7d945c;"><path d="M29.2 43.7h-5v-5h-4v5h-5v4h5v5h4v-5h5z" fill="#e15b64" style="fill: rgb(45, 168, 139);"></path></g></g><g class="ldl-layer"><g class="ldl-ani" style="transform: scale(0.91); transform-origin: 50px 50px; animation: 1.11111s linear -1.08586s infinite normal forwards running breath-18b2b861-6731-42f9-b3a9-7db3db7d945c;"><path fill="#666" d="M58.4 55.3c-.7 0-1.2-.6-1.2-1.2V39.2c0-.7.6-1.2 1.2-1.2.7 0 1.2.6 1.2 1.2v14.9c0 .7-.5 1.2-1.2 1.2z" style="fill: rgb(232, 97, 76);"></path></g></g><g class="ldl-layer"><g class="ldl-ani" style="transform: scale(0.91); transform-origin: 50px 50px; animation: 1.11111s linear -1.11111s infinite normal forwards running breath-18b2b861-6731-42f9-b3a9-7db3db7d945c;"><path fill="#666" d="M37.8 55.3c-.7 0-1.2-.6-1.2-1.2V39.2c0-.7.6-1.2 1.2-1.2.7 0 1.2.6 1.2 1.2v14.9c0 .7-.5 1.2-1.2 1.2z" style="fill: rgb(232, 97, 76);"></path></g></g><metadata xmlns:d="https://loading.io/stock/">
<d:name>ambulance</d:name>
<d:tags>911,emergency,hospital,nurse,doctor,aed,first aid,clinic,ambulance,transportation</d:tags>
<d:slug></d:slug>
</metadata></g></g></svg> 